<svg xmlns="http://www.w3.org/2000/svg" xmlns:xlink="http://www.w3.org/1999/xlink"><symbol id="icon-close" viewBox="0 0 20 20"><path d="M.293 18.291a1 1 0 101.414 1.414L10 11.413l8.292 8.292a1 1 0 101.414-1.414l-8.292-8.292 8.292-8.292A1 1 0 1018.291.293L9.999 8.585 1.707.293A1 1 0 10.293 1.707L8.585 10 .293 18.291z"/></symbol><symbol id="icon-logo" viewBox="0 0 210 134"><path d="M39.65 120.61V130h1.66v-8.49h.02L43.1 130h1.27l1.78-8.5h.02v8.5h1.66v-9.39h-2.85l-1.25 6.1-1.24-6.1h-2.85Zm8.91 9.39h1.91l.56-2.44h2.02l.44 2.44h1.92l-2.08-9.39h-2.39L48.56 130Zm2.7-3.83.85-4.37.72 4.37h-1.58Zm4.9-5.56V130h1.77v-7.96h3.15v-1.43h-4.93Zm4.59 9.39h1.91l.56-2.44h2.01l.45 2.44h1.92l-2.08-9.39h-2.4L60.76 130Zm2.69-3.83.86-4.37.71 4.37h-1.57Zm6.5-2.85c0-.85.36-1.44 1.07-1.44.75 0 .98.68.98 1.3 0 .84-.5 1.2-1.17 1.2h-.37v1.34h.37c.75 0 1.3.4 1.3 1.51 0 .98-.3 1.56-1.17 1.56-.9 0-1.15-.64-1.15-1.29h-1.73c0 2.02 1.45 2.72 2.99 2.72 1.86 0 2.88-.94 2.88-2.82 0-1.42-.63-2.18-1.57-2.42.86-.22 1.44-1.06 1.44-2.04 0-1.9-1.54-2.5-2.8-2.5-1.77 0-2.8 1.24-2.8 2.88h1.73Zm5.24-2.7V130h1.93l2.6-6.81h.01c-.18.84-.22 1.83-.22 3.26V130h1.66v-9.39h-1.92l-2.6 6.83h-.01c.17-.78.22-2.2.22-3.32v-3.5h-1.67Zm9.06 0h-1.78V130h1.78v-4.34h2.35V130h1.78v-9.39H86.6v3.62h-2.35v-3.62Zm8.55 0V130h1.93l2.6-6.81h.01c-.18.84-.22 1.83-.22 3.26V130h1.66v-9.39h-1.92l-2.6 6.83h-.01c.16-.78.22-2.2.22-3.32v-3.5h-1.67Zm9.06 0h-1.78V130h1.78v-4.34h2.35V130h1.78v-9.39h-1.78v3.62h-2.35v-3.62Zm11.1 3.05v-.47c0-1.73-1-2.76-2.81-2.76-1.94 0-2.93 1.03-2.93 3.23v3.42c0 1.66.56 3.13 2.9 3.13 2.22 0 2.84-1.46 2.84-3.16v-.4h-1.78v.5c0 1.22-.36 1.63-1.07 1.63-.75 0-1.07-.4-1.07-1.62v-3.7c0-1.2.33-1.6 1.08-1.6.76 0 1.06.4 1.06 1.6v.2h1.78Zm4.8-1.63h2.22v-1.43h-6.2v1.43h2.2V130h1.79v-7.96Zm4.88 4.14h1.56c1.52 0 2.5-1.28 2.5-2.82 0-1.51-.95-2.75-2.47-2.75h-3.37V130h1.78v-3.82Zm0-4.18h.9c.9 0 1.34.5 1.34 1.38 0 .9-.45 1.4-1.34 1.4h-.9V122Zm4.75-1.39 2.57 7.43c-.18.53-.44.75-.8.75-.23 0-.38-.08-.49-.1v1.36c.31.1.66.17 1.08.17.87 0 1.43-.53 1.92-2.01l2.55-7.6h-1.95l-1.44 4.98-1.44-4.98h-2Zm7.59 0V130h1.66v-8.49h.01l1.78 8.49h1.28l1.78-8.5h.01v8.5h1.67v-9.39h-2.85l-1.25 6.1-1.25-6.1h-2.84Zm9.5 0V130h5.01v-1.43h-3.24v-2.91h2.95v-1.43h-2.95v-2.19h3.24v-1.43h-5.02Zm7.9 0h-1.78V130h1.78v-4.34h2.36V130h1.78v-9.39h-1.78v3.62h-2.35v-3.62Zm9.01 1.43h2.21v-1.43h-6.2v1.43h2.2V130h1.79v-7.96Zm2.02 7.96h1.91l.56-2.44h2.02l.44 2.44h1.92l-2.08-9.39h-2.39L163.4 130Zm2.7-3.83.85-4.37.72 4.37h-1.58Z" fill="#000"/><path fill="#FC0" d="M0 0h210v111H0z"/><path d="M71.9 42.73c4.42-3.45 8.1-1.07 13 4.61.56.64 1.3-.11 1.72-.48.42-.37 6.9-6.2 7.21-6.46.31-.28.7-.8.2-1.39-1.2-1.48-2.38-2.99-3.53-4.51-8.6-11.24 23.5-18.86 18.56-18.98-2.5-.06-12.56-.18-14.07-.01-6.1.64-13.75 6.33-17.6 8.99-5.04 3.45-6.92 5.47-7.23 5.75-1.42 1.24-.23 4.12-2.81 6.38-2.73 2.4-4.44.58-6.02 1.97-.78.7-2.98 2.34-3.6 2.88-.63.56-.75 1.5-.1 2.24 0 0 6 6.63 6.5 7.22.5.58 1.86 1.08 2.7.34l3.36-2.96c.37-.32-.24-4.1 1.7-5.6ZM99 45.18c-.57-.66-1.27-.68-1.88-.13l-6.81 5.94a1.37 1.37 0 0 0-.13 1.9l39.4 44.84a2.53 2.53 0 0 0 3.56.25l4.61-3.86a2.56 2.56 0 0 0 .25-3.6L99 45.18Zm52.53-19.08c-.35-2.34-1.56-1.85-2.2-.86-.63 1-3.42 5.23-4.57 7.15-1.14 1.9-3.95 5.66-9.19 1.95-5.45-3.85-3.55-6.54-2.6-8.35a197.2 197.2 0 0 1 4.3-7.55c.43-.65-.07-2.5-1.76-1.73-1.7.78-11.98 4.87-13.4 10.74-1.47 5.96 1.21 11.3-4.04 16.6l-6.38 6.64 6.4 7.44 7.86-7.46c1.87-1.88 5.87-3.7 9.5-2.88 7.75 1.75 11.98-1.16 14.53-5.97 2.3-4.3 1.91-13.37 1.56-15.72ZM70.02 91a2.56 2.56 0 0 0 0 3.6l4.52 4.42c.99 1 2.55.57 3.54-.42l23.3-22.91-7.13-8.14L70.01 91Z" fill="currentColor"/></symbol></svg>