<svg fill="none" xmlns="http://www.w3.org/2000/svg" viewBox="0 0 18 16"><path fill-rule="evenodd" clip-rule="evenodd" d="M17.47 5.5h-.2L15.13.32a.53.53 0 0 0-.69-.28l-3.64 1.42c-.3-.42-.76-.72-1.28-.85-.45-.08-.9-.03-1.06 0a2.18 2.18 0 0 0-1.67 2.4L3.16 4.44a.52.52 0 0 0-.3.29L.74 9.89H.53c-.3 0-.53.23-.53.51 0 1.5 1.25 2.71 2.79 2.71h1.13a2.75 2.75 0 0 0 2.78-2.7.52.52 0 0 0-.52-.52h-.21l-1.93-4.7 3.15-1.22c.3.41.76.72 1.28.84v8.13h-.6c-1.54 0-2.77 1.05-2.77 2.55 0 .28.23.51.53.51h6.77c.3 0 .53-.2.53-.35v-.16c0-1.5-1.26-2.55-2.8-2.55h-.6V4.81a2.18 2.18 0 0 0 1.67-2.4l2.5-.97-1.67 4.06h-.2c-.3 0-.53.22-.53.5 0 1.5 1.25 2.72 2.78 2.72h1.13A2.75 2.75 0 0 0 18 6a.52.52 0 0 0-.53-.51ZM2.8 12.09h1.13c.77 0 1.42-.5 1.65-1.17H1.13c.22.67.88 1.17 1.65 1.17Zm-.92-2.2h2.96l-1.48-3.6-1.48 3.6Zm4.37 5.08h5.55c-.22-.67-.89-1-1.66-1H7.87c-.77 0-1.41.33-1.63 1Zm1.6-12.26c0 .63.52 1.14 1.16 1.14.64 0 1.17-.51 1.17-1.14 0-.62-.53-1.13-1.17-1.13-.64 0-1.17.5-1.17 1.13Zm8.29 2.79-1.48-3.6-1.48 3.6h2.96Zm-2.05 2.2h1.13c.77 0 1.43-.5 1.65-1.18h-4.43c.23.68.88 1.17 1.65 1.17Z" fill="currentColor"/></svg>