<svg fill="none" xmlns="http://www.w3.org/2000/svg" viewBox="0 0 19 18"><g clip-path="url(#a)" fill-rule="evenodd" clip-rule="evenodd" fill="currentColor"><path d="M8.52 14.8c.88 0 1.59.72 1.59 1.6a1.6 1.6 0 1 1-3.18 0c0-.88.71-1.6 1.59-1.6Zm-.34 1.6a.34.34 0 1 1 .58.24.34.34 0 0 1-.58-.24ZM15.94 14.8c.88 0 1.6.72 1.6 1.6a1.6 1.6 0 1 1-3.18 0c0-.88.7-1.6 1.58-1.6Zm-.33 1.6a.34.34 0 1 1 .57.24.34.34 0 0 1-.57-.24ZM14.15 11.3a5.4 5.4 0 0 0 4.4-3.57c.84-2 .36-2.95-.23-3.21l-6.28-.82L3.8 2.5l-.77-.57c.1-.43.02-.89-.22-1.24A1.54 1.54 0 0 0 .68.27c-.7.48-.9 1.44-.42 2.15.44.66 1.3.88 2 .5l.8.58 3.23 8a1.8 1.8 0 0 0 1.35 2.97h9.82c.35 0 .63-.28.63-.62a.63.63 0 0 0-.63-.63H7.64a.52.52 0 0 1-.47-.26c-.19-.3-.02-.7.32-.78l6.66-.88Zm-1.8-6.27-3.41-.51.62 2.15 3.15.08-.14-.82-.21-.9ZM1.79 1.39c-.13-.2-.47-.15-.52.1a.3.3 0 0 0 .44.31.3.3 0 0 0 .08-.4Zm7 9.35.63-.08-.8-2.76-2.46-.07 1.25 3.09c.46-.05.92-.11 1.37-.18Zm1.14-2.8.74 2.55 2.64-.34-.37-2.13-3-.09ZM5.64 6.55l2.6.07-.66-2.31-3.02-.45 1.08 2.69Zm8.11-1.4.2 1.6s2.17.14 2.9.14c.35-.45.75-1.37-.1-1.45l-.89-.07c-.77-.07-1.65-.14-2.1-.21Zm.78 4.79-.38-1.93 2.79.05a4.5 4.5 0 0 1-2.4 1.88Z"/></g><defs><clipPath id="a"><path fill="#fff" d="M0 0h19v18H0z"/></clipPath></defs></svg>